<svg width="490" height="352" viewBox="0 0 490 352" fill="none" xmlns="http://www.w3.org/2000/svg">
<path d="M352.439 350.5C347.386 293.552 353.343 264.792 488.844 258.5M488.844 194C328.93 179.783 266.315 229.933 167.482 350.5M84.8299 350.5C174.449 205.563 253.943 142.877 488.844 90.5M488.844 1.5C199.375 48.555 94.1419 126.491 1.02148 350.5" stroke="white" stroke-width="2"/>
<ellipse cx="231.061" cy="67" rx="57.7989" ry="50" fill="#E7E8FE"/>
<path d="M274.488 75C274.488 102.273 248.905 124.5 217.19 124.5C185.474 124.5 159.891 102.273 159.891 75C159.891 47.7275 185.474 25.5 217.19 25.5C248.905 25.5 274.488 47.7275 274.488 75Z" stroke="white"/>
<path d="M244.433 218C244.433 245.273 218.85 267.5 187.134 267.5C155.418 267.5 129.835 245.273 129.835 218C129.835 190.727 155.418 168.5 187.134 168.5C218.85 168.5 244.433 190.727 244.433 218Z" stroke="white"/>
<path d="M423.609 192C423.609 219.273 398.026 241.5 366.311 241.5C334.595 241.5 309.012 219.273 309.012 192C309.012 164.727 334.595 142.5 366.311 142.5C398.026 142.5 423.609 164.727 423.609 192Z" stroke="white"/>
<ellipse cx="159.391" cy="230" rx="57.7989" ry="50" fill="#E7E8FE"/>
<ellipse cx="388.274" cy="192" rx="57.7989" ry="50" fill="#E7E8FE"/>
</svg>
